# xmcd CD database file
#
# Track frame offsets:
#	150
#	26914
#	54621
#	78809
#	104934
#	125964
#	145804
#	172332
#	189276
#	215224
#
# Disc length: 3119 seconds
#
# Revision: 1
# Processed by: cddbd v1.5.2PL0 Copyright (c) Steve Scherf et al.
# Submitted via: CDex 1.70beta2
#
DISCID=a10c2d0a
DTITLE=Keiko Lee - Smooth - SICO-10113
DYEAR=2010
DGENRE=Classical
TTITLE0=The Nearness of You
TTITLE1=For the Love of You
TTITLE2=Good Morning Heartache
TTITLE3=A House Is Not a Home
TTITLE4=It's Happenin'
TTITLE5=Don't Know Why
TTITLE6=Hello Like Before
TTITLE7=The Lady in My Life
TTITLE8=Weakness
TTITLE9=Across the Universe
EXTD=YEAR: 2010
EXTT0=
EXTT1=
EXTT2=
EXTT3=
EXTT4=
EXTT5=
EXTT6=
EXTT7=
EXTT8=
EXTT9=
PLAYORDER=
